# xmcd
#
# Track frame offsets:
#	150
#	15029
#	30138
#	45019
#	58673
#	74130
#	84791
#	99717
#	115002
#	128681
#	144311
#	158223
#
# Disc length: 2317 seconds
#
# Revision: 1
# Processed by: cddbd v1.5.2PL0 Copyright (c) Steve Scherf et al.
# Submitted via: audiograbber 1.83.01
#
DISCID=83090b0c
DTITLE=Pedro Fernandez - Un mundo raro
DYEAR=1997
DGENRE=Pop
TTITLE0=Despacito
TTITLE1=Tú y las nubes
TTITLE2=Un mundo raro
TTITLE3=Si nos dejan
TTITLE4=Pa' todo el año
TTITLE5=El ultimo trago
TTITLE6=Que te vaya bonito
TTITLE7=Amanecí en tus brazos
TTITLE8=Paloma querida
TTITLE9=Cuando sale la luna
TTITLE10=Ella
TTITLE11=Caminos de Guanajuato
EXTD=
EXTT0=
EXTT1=
EXTT2=
EXTT3=
EXTT4=
EXTT5=
EXTT6=
EXTT7=
EXTT8=
EXTT9=
EXTT10=
EXTT11=
PLAYORDER=
